<?xml version="1.0" encoding="UTF-8" standalone="no"?><!-- Generator: Gravit.io --><svg xmlns="http://www.w3.org/2000/svg" xmlns:xlink="http://www.w3.org/1999/xlink" style="isolation:isolate" viewBox="0 0 240 60" width="240pt" height="60pt"><defs><clipPath id="_clipPath_OXo4euLNYTzTamDlGUyrPEhH8F479Dwn"><rect width="240" height="60"/></clipPath></defs><g clip-path="url(#_clipPath_OXo4euLNYTzTamDlGUyrPEhH8F479Dwn)"><g><path d=" M 88 29.901 L 88 30.5 L 88 31.143 L 88.901 32 L 88.901 32 L 89.5 32 L 89.5 32 L 89.5 32 L 89.5 32 L 90.143 32 L 90.143 32 L 91 31.099 L 91 31.099 L 91 30.5 L 91 29.857 L 91 29.857 L 90.099 29 L 89.5 29 L 89.5 29 L 89.5 29 L 89.5 29 L 88.857 29 L 88.857 29 L 88 29.901 Z  M 76.987 25.5 L 76 25.5 C 73.24 25.5 71 27.74 71 30.5 L 71 30.5 C 71 33.26 73.24 35.5 76 35.5 L 77.845 35.5 L 76.927 36.464 L 76.573 36.837 L 76.573 36.837 C 74.672 38.836 74.751 42.004 76.751 43.905 L 76.751 43.905 C 78.75 45.807 81.918 45.728 83.82 43.728 L 83.82 43.728 L 84.5 43.013 L 84.5 43.013 L 84.5 44 C 84.5 46.76 86.74 49 89.5 49 L 89.5 49 L 89.5 49 C 92.26 49 94.5 46.76 94.5 44 L 94.5 44 L 94.5 42.155 L 94.5 42.155 L 95.506 43.112 L 95.837 43.427 C 97.836 45.328 101.004 45.249 102.905 43.249 L 102.905 43.249 C 104.807 41.25 104.728 38.082 102.728 36.18 L 102.728 36.18 L 102.013 35.5 L 103 35.5 L 103 35.5 C 105.76 35.5 108 33.26 108 30.5 L 108 30.5 C 108 27.74 105.76 25.5 103 25.5 L 101.155 25.5 L 101.155 25.5 L 102.105 24.501 L 102.427 24.163 C 104.328 22.164 104.249 18.996 102.249 17.095 L 102.249 17.095 C 100.25 15.193 97.082 15.272 95.18 17.272 L 95.18 17.272 L 94.5 17.987 L 94.5 17 L 94.5 17 L 94.5 17 C 94.5 14.24 92.26 12 89.5 12 L 89.5 12 C 86.74 12 84.5 14.24 84.5 17 L 84.5 18.845 L 83.535 17.927 L 83.163 17.573 L 83.163 17.573 C 81.164 15.672 77.996 15.751 76.095 17.751 L 76.095 17.751 C 74.193 19.75 74.272 22.918 76.272 24.82 L 76.272 24.82 L 76.987 25.5 Z " fill-rule="evenodd" fill="rgb(251,251,122)"/><circle vector-effect="non-scaling-stroke" cx="89.99999999999997" cy="30.499999999999993" r="10" fill="rgb(159,120,86)"/></g><g><path d=" M 208.5 29.401 L 208.5 30 L 208.5 30.643 L 209.401 31.5 L 209.401 31.5 L 210 31.5 L 210 31.5 L 210 31.5 L 210 31.5 L 210.643 31.5 L 210.643 31.5 L 211.5 30.599 L 211.5 30.599 L 211.5 30 L 211.5 29.357 L 211.5 29.357 L 210.599 28.5 L 210 28.5 L 210 28.5 L 210 28.5 L 210 28.5 L 209.357 28.5 L 209.357 28.5 L 208.5 29.401 Z  M 197.487 25 L 196.5 25 C 193.74 25 191.5 27.24 191.5 30 L 191.5 30 C 191.5 32.76 193.74 35 196.5 35 L 198.345 35 L 197.427 35.964 L 197.073 36.337 L 197.073 36.337 C 195.172 38.336 195.251 41.504 197.251 43.405 L 197.251 43.405 C 199.25 45.307 202.418 45.228 204.32 43.228 L 204.32 43.228 L 205 42.513 L 205 42.513 L 205 43.5 C 205 46.26 207.24 48.5 210 48.5 L 210 48.5 L 210 48.5 C 212.76 48.5 215 46.26 215 43.5 L 215 43.5 L 215 41.655 L 215 41.655 L 216.006 42.612 L 216.337 42.927 C 218.336 44.828 221.504 44.749 223.405 42.749 L 223.405 42.749 C 225.307 40.75 225.228 37.582 223.228 35.68 L 223.228 35.68 L 222.513 35 L 223.5 35 L 223.5 35 C 226.26 35 228.5 32.76 228.5 30 L 228.5 30 C 228.5 27.24 226.26 25 223.5 25 L 221.655 25 L 221.655 25 L 222.605 24.001 L 222.927 23.663 C 224.828 21.664 224.749 18.496 222.749 16.595 L 222.749 16.595 C 220.75 14.693 217.582 14.772 215.68 16.772 L 215.68 16.772 L 215 17.487 L 215 16.5 L 215 16.5 L 215 16.5 C 215 13.74 212.76 11.5 210 11.5 L 210 11.5 C 207.24 11.5 205 13.74 205 16.5 L 205 18.345 L 204.035 17.427 L 203.663 17.073 L 203.663 17.073 C 201.664 15.172 198.496 15.251 196.595 17.251 L 196.595 17.251 C 194.693 19.25 194.772 22.418 196.772 24.32 L 196.772 24.32 L 197.487 25 Z " fill-rule="evenodd" fill="rgb(255,206,133)"/><circle vector-effect="non-scaling-stroke" cx="209.99999999999986" cy="30.5" r="10" fill="rgb(255,241,179)"/></g></g></svg>