<?xml version="1.0" encoding="UTF-8" standalone="no"?>
<!-- Generator: Gravit.io -->
<svg xmlns="http://www.w3.org/2000/svg" xmlns:xlink="http://www.w3.org/1999/xlink" style="isolation:isolate" viewBox="0 0 131 302" width="131pt" height="302pt"><defs><clipPath id="_clipPath_gjcIqpeNLe3OYchcP5Rco5IG9hKGp7hs"><rect width="131" height="302"/></clipPath></defs><g clip-path="url(#_clipPath_gjcIqpeNLe3OYchcP5Rco5IG9hKGp7hs)"><g><path d=" M 48 0 Q 53.534 19.847 53.534 22.578 C 53.534 25.31 60.114 52.993 59.068 105.628 Q 57.69 174.956 48 302 L 59.068 302 Q 68.867 175.658 70.251 106.372 C 71.28 54.823 65.639 29.328 64.601 22.789 Q 63.564 16.25 59.068 0 L 48 0 Z " fill="rgb(118,140,113)" fill-opacity="0.8"/><path d=" M 49.624 0 Q 55.158 19.847 55.158 22.578 C 55.158 25.31 61.738 52.993 60.692 105.628 Q 59.314 174.956 49.624 302 L 60.692 302 Q 70.491 175.658 71.875 106.372 C 72.905 54.823 67.263 29.328 66.226 22.789 Q 65.188 16.25 60.692 0 L 49.624 0 Z " fill="rgb(143,181,135)"/><g><path d=" M 65.306 30.926 C 71.937 52.191 118.451 33.777 126.548 11.828 C 126.758 11.257 65.129 30.359 65.306 30.926 Z " fill="rgb(143,181,135)"/><path d=" M 64.691 33.323 C 70.035 54.947 116.145 35.474 125.933 14.225 C 127.969 9.805 56.25 -0.831 64.691 33.323 Z " fill="rgb(126,168,118)" fill-opacity="0.38"/><path d=" M 65.306 30.926 C 58.675 9.662 107.41 -1.628 126.548 11.828 C 127.046 12.178 65.483 31.493 65.306 30.926 Z " fill="rgb(143,181,135)"/><path d=" M 92.006 36.736 L 77.394 27.48 L 74.443 29.088 L 92.006 36.736 Z " fill="rgb(129,157,120)"/><path d=" M 84 11.135 L 77.144 27.174 L 73.789 27.544 L 84 11.135 Z " fill="rgb(129,157,120)"/><path d=" M 99.223 31.946 L 85.333 25.004 L 82.347 26.497 L 99.223 31.946 Z " fill="rgb(129,157,120)"/><path d=" M 106.314 26.754 L 93.218 22.359 L 90.192 23.725 L 106.314 26.754 Z " fill="rgb(129,157,120)"/><path d=" M 115.004 21.91 L 102.476 19.34 L 99.422 20.615 L 115.004 21.91 Z " fill="rgb(129,157,120)"/><path d=" M 122.064 18.305 L 109.938 17.021 L 106.864 18.232 L 122.064 18.305 Z " fill="rgb(129,157,120)"/><path d=" M 92.632 10.809 L 85.149 24.415 L 81.844 24.884 L 92.632 10.809 Z " fill="rgb(129,157,120)"/><path d=" M 101.176 10.276 L 92.899 21.336 L 89.633 21.932 L 101.176 10.276 Z " fill="rgb(129,157,120)"/><path d=" M 111.078 9.322 L 102.232 18.558 L 98.995 19.244 L 111.078 9.322 Z " fill="rgb(129,157,120)"/><path d=" M 118.994 8.459 L 109.747 16.409 L 106.53 17.16 L 118.994 8.459 Z " fill="rgb(129,157,120)"/><path d=" M 123 13 Q 79.233 25.114 67.907 31.286" fill="none" vector-effect="non-scaling-stroke" stroke-width="2" stroke="rgb(129,157,120)" stroke-linejoin="miter" stroke-linecap="round" stroke-miterlimit="3"/></g><g><path d=" M 69.216 130.555 C 75.847 151.819 122.361 133.405 130.457 111.456 C 130.668 110.885 69.039 129.988 69.216 130.555 Z " fill="rgb(143,181,135)"/><path d=" M 68.601 132.952 C 73.945 154.576 120.055 135.103 129.842 113.854 C 131.878 109.434 60.16 98.798 68.601 132.952 Z " fill="rgb(126,168,118)" fill-opacity="0.38"/><path d=" M 69.216 130.555 C 62.584 109.29 111.32 98.001 130.457 111.456 C 130.955 111.807 69.392 131.122 69.216 130.555 Z " fill="rgb(143,181,135)"/><path d=" M 95.915 136.365 L 81.303 127.109 L 78.353 128.717 L 95.915 136.365 Z " fill="rgb(129,157,120)"/><path d=" M 87.91 110.763 L 81.054 126.802 L 77.699 127.173 L 87.91 110.763 Z " fill="rgb(129,157,120)"/><path d=" M 103.133 131.574 L 89.243 124.633 L 86.257 126.126 L 103.133 131.574 Z " fill="rgb(129,157,120)"/><path d=" M 110.224 126.382 L 97.128 121.988 L 94.102 123.354 L 110.224 126.382 Z " fill="rgb(129,157,120)"/><path d=" M 118.913 121.539 L 106.386 118.968 L 103.332 120.243 L 118.913 121.539 Z " fill="rgb(129,157,120)"/><path d=" M 125.974 117.933 L 113.848 116.649 L 110.773 117.86 L 125.974 117.933 Z " fill="rgb(129,157,120)"/><path d=" M 96.542 110.437 L 89.059 124.044 L 85.754 124.513 L 96.542 110.437 Z " fill="rgb(129,157,120)"/><path d=" M 105.085 109.904 L 96.809 120.964 L 93.543 121.56 L 105.085 109.904 Z " fill="rgb(129,157,120)"/><path d=" M 114.987 108.95 L 106.142 118.186 L 102.905 118.873 L 114.987 108.95 Z " fill="rgb(129,157,120)"/><path d=" M 122.903 108.088 L 113.657 116.037 L 110.439 116.788 L 122.903 108.088 Z " fill="rgb(129,157,120)"/><path d=" M 126.91 112.628 Q 83.142 124.742 71.817 130.914" fill="none" vector-effect="non-scaling-stroke" stroke-width="2" stroke="rgb(129,157,120)" stroke-linejoin="miter" stroke-linecap="round" stroke-miterlimit="3"/></g><g><path d=" M 61.245 71.169 C 54.613 92.434 8.1 74.02 0.003 52.071 C -0.208 51.5 61.421 70.602 61.245 71.169 Z " fill="rgb(143,181,135)"/><path d=" M 61.86 73.566 C 56.516 95.19 10.406 75.717 0.618 54.468 C -1.418 50.048 70.3 39.412 61.86 73.566 Z " fill="rgb(126,168,118)" fill-opacity="0.38"/><path d=" M 61.245 71.169 C 67.876 49.905 19.141 38.615 0.003 52.071 C -0.495 52.421 61.068 71.736 61.245 71.169 Z " fill="rgb(143,181,135)"/><path d=" M 34.545 76.979 L 49.157 67.723 L 52.107 69.331 L 34.545 76.979 Z " fill="rgb(129,157,120)"/><path d=" M 42.551 51.378 L 49.406 67.417 L 52.761 67.787 L 42.551 51.378 Z " fill="rgb(129,157,120)"/><path d=" M 27.327 72.189 L 41.217 65.247 L 44.204 66.74 L 27.327 72.189 Z " fill="rgb(129,157,120)"/><path d=" M 20.236 66.997 L 33.332 62.602 L 36.358 63.968 L 20.236 66.997 Z " fill="rgb(129,157,120)"/><path d=" M 11.547 62.153 L 24.074 59.583 L 27.128 60.858 L 11.547 62.153 Z " fill="rgb(129,157,120)"/><path d=" M 4.487 58.548 L 16.613 57.264 L 19.687 58.475 L 4.487 58.548 Z " fill="rgb(129,157,120)"/><path d=" M 33.919 51.052 L 41.401 64.658 L 44.707 65.127 L 33.919 51.052 Z " fill="rgb(129,157,120)"/><path d=" M 25.375 50.519 L 33.652 61.579 L 36.917 62.175 L 25.375 50.519 Z " fill="rgb(129,157,120)"/><path d=" M 15.473 49.565 L 24.318 58.801 L 27.556 59.488 L 15.473 49.565 Z " fill="rgb(129,157,120)"/><path d=" M 7.557 48.702 L 16.803 56.652 L 20.021 57.403 L 7.557 48.702 Z " fill="rgb(129,157,120)"/><path d=" M 3.551 53.243 Q 47.318 65.357 58.644 71.529" fill="none" vector-effect="non-scaling-stroke" stroke-width="2" stroke="rgb(129,157,120)" stroke-linejoin="miter" stroke-linecap="round" stroke-miterlimit="3"/></g></g></g></svg>